<svg xmlns="http://www.w3.org/2000/svg" viewBox="0 9.6899995803833 181.49000549316406 50.17000198364258" data-asc="0.986328125" width="181.49000549316406" height="50.17000198364258"><defs/><g fill="#000000"><g transform="translate(0, 0)"><path d="M0 45.19Q0 44.07 0.32 42.88Q0.63 41.70 1.17 40.92L3.52 41.36L6.15 18.51L2.39 17.97Q1.93 16.75 1.93 15.48Q1.93 14.18 2.44 12.84Q3.74 12.23 6.87 11.85Q10.01 11.47 12.45 11.47Q14.72 11.47 18.04 11.57L18.90 11.96Q19.43 13.48 20.37 17.15Q21.31 20.83 23.58 30.10Q23.95 31.54 24.39 33.37Q25.56 29.13 27.27 21.36L27.88 18.70L28.00 18.70L23.95 18.02Q23.36 16.65 23.36 15.09Q23.36 14.06 23.63 12.87Q26.00 12.11 28.58 11.79Q31.15 11.47 34.20 11.47L35.01 11.47Q36.30 11.47 38.70 11.57L39.55 11.96Q41.11 17.63 42.54 25.70Q43.97 33.76 44.70 40.50L44.78 41.11Q44.80 41.28 44.90 42.27Q45.00 43.26 45.00 44.17Q45.00 45.26 44.78 46.34Q44.41 47.95 43.46 49.00Q42.50 49.39 41.47 49.60Q40.43 49.80 39.06 49.80Q37.72 49.80 36.39 49.50Q35.06 49.19 34.62 48.61L35.50 43.02L34.03 27.66L34.16 19.48L33.40 19.48L32.20 27.86Q29.81 36.72 27.83 41.58Q28.52 42.92 29.02 44.56Q29.52 46.19 29.64 47.75Q28.61 48.73 26.84 49.27Q25.07 49.80 23.10 49.80Q21.07 49.80 19.40 49.24Q17.72 48.68 16.97 47.68Q17.09 45.21 18.19 42.92L13.84 27.22L12.04 19.82L11.21 19.95L12.40 28.22Q12.30 32.54 12.08 37.01Q11.87 41.48 11.60 44.09L11.62 44.09Q11.43 45.63 10.58 46.81Q9.74 48.00 8.46 48.66Q7.18 49.32 5.69 49.32Q1.78 49.32 0.05 45.95Q0 45.46 0 45.19ZM48.17 35.13Q48.17 30.91 49.58 27.59Q51.00 24.27 53.97 22.33Q56.93 20.39 61.38 20.39Q63.70 20.39 66.02 20.94Q68.33 21.48 69.95 22.75Q71.44 23.95 72.11 25.92Q72.78 27.88 72.78 30.27Q72.78 31.86 72.51 33.52Q72.22 34.01 71.36 34.80Q70.51 35.60 69.36 36.35Q68.21 37.11 67.14 37.52Q66.11 37.60 65.01 37.60Q63.09 37.60 61.11 37.43Q59.13 37.26 57.64 37.04Q57.84 39.11 58.91 40.65Q59.99 42.19 62.33 42.19Q62.55 42.19 63.04 42.14Q64.53 41.99 66.52 41.35Q68.51 40.70 70.48 39.84Q71.41 40.77 71.85 41.70Q72.29 42.63 72.46 44.36Q71.70 45.24 70.01 46.51Q68.31 47.78 65.87 48.79Q63.43 49.80 60.77 49.80Q56.76 49.80 53.92 47.86Q51.07 45.92 49.62 42.59Q48.17 39.26 48.17 35.13M63.89 29.52Q63.55 29.15 62.74 28.94Q61.94 28.74 61.06 28.74Q60.35 28.74 59.63 28.86Q58.91 28.98 58.76 29.13Q57.93 30.76 57.71 32.84L64.23 32.20L63.89 29.52ZM75.34 17.38Q74.98 15.89 74.85 14.90Q74.73 13.92 74.76 12.62Q75.27 11.96 76.35 11.29Q77.44 10.62 78.89 10.16Q80.35 9.69 81.91 9.69Q84.96 9.69 86.60 11.23Q88.23 12.77 88.23 15.77Q88.23 17.92 87.87 22.68Q87.50 27.44 86.82 32.80Q86.13 38.16 85.25 42.16L85.30 42.21L88.92 40.70Q90.82 42.33 91.14 45.04Q91.14 45.21 90.04 46.45Q88.94 47.68 87.15 48.74Q85.35 49.80 83.03 49.80Q80.62 49.80 79.11 48.46Q77.61 47.12 77.69 43.87L77.73 39.48Q77.76 33.23 77.87 28.22Q77.98 23.22 78.34 17.90L75.34 17.38ZM93.09 34.89Q93.09 30.47 94.51 27.22Q95.92 23.97 98.85 22.18Q101.78 20.39 106.20 20.39Q111.08 20.39 113.87 22.20Q116.65 24.02 117.76 27.25Q118.87 30.47 118.87 35.13Q118.87 39.36 117.40 42.66Q115.92 45.97 112.95 47.89Q109.99 49.80 105.69 49.80Q99.05 49.80 96.07 45.72Q93.09 41.63 93.09 34.89M106.69 42.65Q107.93 42.65 108.20 42.46Q108.76 41.48 109.06 39.70Q109.35 37.92 109.35 35.84Q109.35 33.94 109.11 32.26Q108.86 30.59 108.42 29.64Q108.15 29.32 107.35 29.16Q106.54 29.00 105.59 29.00Q104.35 29.00 103.88 29.27Q102.66 31.37 102.66 35.11Q102.66 36.87 102.93 38.70Q103.20 40.53 103.61 42.02Q103.91 42.33 104.81 42.49Q105.71 42.65 106.69 42.65ZM124.49 40.82Q124.49 36.84 124.58 34.80Q124.68 32.76 125.10 28.81L122.27 28.44Q121.75 26.86 121.59 25.61Q121.44 24.37 121.44 22.39Q121.83 22.05 122.74 21.57Q123.66 21.09 124.93 20.74Q126.20 20.39 127.49 20.39Q130.44 20.39 131.68 21.66Q132.91 22.92 132.91 25.46Q132.91 26.88 132.50 29.30Q131.81 33.18 131.81 33.37Q131.81 33.50 131.98 33.61Q132.15 33.72 132.35 33.72Q132.57 33.72 132.64 33.54Q133.62 29.66 134.59 27.05Q135.57 24.44 137.55 22.41Q139.53 20.39 142.68 20.39Q146.58 20.39 148.29 22.77Q150 25.15 150 28.76Q150 31.98 149.24 34.97Q148.49 37.96 147.36 41.21Q147.41 41.09 147.02 42.16L147.07 42.21L150.63 40.75Q152.54 42.38 152.86 45.09Q152.86 45.26 151.77 46.48Q150.68 47.71 148.90 48.75Q147.12 49.80 144.80 49.80Q142.48 49.80 141.02 48.56Q139.55 47.31 139.55 44.31Q139.55 41.92 139.75 37.92Q139.94 33.91 140.14 31.47Q139.50 30.79 138.57 30.74Q137.72 31.84 136.06 35.13Q134.40 38.43 133.72 40.06Q133.67 40.41 133.67 40.72Q133.67 41.94 134.03 44.01Q134.40 46.07 134.94 47.85Q134.50 48.68 133.13 49.24Q131.76 49.80 129.76 49.80Q127.95 49.80 126.87 49.51Q125.78 49.22 125.34 48.89Q124.90 48.56 124.90 48.49Q124.88 48.27 124.78 47.33Q124.68 46.39 124.58 44.69Q124.49 42.99 124.49 40.82ZM163.35 46.26Q162.89 44.46 161.62 41.03Q160.35 37.60 158.96 34.42Q157.57 31.25 156.76 30.05L154.52 29.66Q154.17 28.71 153.99 27.55Q153.81 26.39 153.69 24.85Q154.10 23.71 154.96 22.68Q155.81 21.66 157.02 21.02Q158.23 20.39 159.64 20.39Q161.96 20.39 163.49 21.69Q165.01 23.00 165.86 24.96Q166.70 26.93 167.33 29.59Q168.63 34.74 168.99 42.36L169.53 42.26Q170.48 40.14 171.15 36.18Q171.83 32.23 171.88 28.59L168.82 28.13Q168.29 26.07 168.29 23.32Q168.82 22.66 169.84 21.98Q170.85 21.31 172.24 20.85Q173.63 20.39 175.20 20.39Q181.49 20.39 181.49 26.71Q181.49 31.69 179.70 36.38Q177.91 41.06 174.32 44.85Q170.73 48.63 165.58 50.81L165.77 51.61Q166.43 51.68 167.07 51.68Q169.14 51.68 172.07 51.00Q173.73 52.86 173.73 55.05Q173.73 55.71 173.58 56.40Q172.12 57.81 169.92 58.84Q167.72 59.86 165.09 59.86Q161.25 59.86 158.89 58.13Q156.52 56.40 156.52 52.86Q156.52 51.27 157.48 50.09Q158.45 48.90 159.73 48.16Q161.01 47.41 163.35 46.26Z"/></g></g></svg>